<svg width="18" height="16" viewBox="0 0 18 16" fill="none" xmlns="http://www.w3.org/2000/svg">
<path fill-rule="evenodd" clip-rule="evenodd" d="M12.4048 2.94093C13.0186 2.94195 13.6191 3.12023 14.1341 3.45436C14.6491 3.78848 15.0568 4.26426 15.3082 4.82454C15.5595 5.38482 15.6439 6.00578 15.5511 6.61288C15.4584 7.21997 15.1925 7.78737 14.7853 8.24695C14.2008 8.90621 9.21663 13.5743 9.21663 13.5743C9.21663 13.5743 4.22178 8.9062 3.63727 8.2363C3.12168 7.65657 2.83788 6.90696 2.84022 6.13093C2.84022 5.28489 3.1761 4.47348 3.77401 3.87524C4.37191 3.277 5.18286 2.94093 6.02843 2.94093C6.87399 2.94093 7.68494 3.277 8.28285 3.87524C8.88075 4.47348 9.21663 5.28489 9.21663 6.13093C9.21663 5.28489 9.55251 4.47348 10.1504 3.87524C10.7483 3.277 11.5593 2.94093 12.4048 2.94093ZM12.4048 0.814263C11.2548 0.81218 10.1354 1.18551 9.21663 1.8776C8.16414 1.09983 6.86187 0.737931 5.55926 0.861252C4.25666 0.984572 3.04528 1.58446 2.15727 2.54594C1.26925 3.50742 0.767005 4.76293 0.746732 6.07193C0.726459 7.38093 1.18964 8.65136 2.04745 9.63991C2.64471 10.3247 6.57575 14.0081 7.76601 15.1203C8.15974 15.4887 8.67862 15.6936 9.21767 15.6936C9.75672 15.6936 10.2757 15.4887 10.6694 15.1203C11.8554 14.0091 15.7705 10.3353 16.3752 9.65159C17.0521 8.88527 17.4936 7.93991 17.647 6.92881C17.8004 5.91772 17.6591 4.88381 17.2401 3.95104C16.821 3.01827 16.142 2.22622 15.2843 1.66985C14.4267 1.11348 13.4269 0.816437 12.4048 0.814263Z" fill="#33A0FF"/>
</svg>
